**ABCDEFGHIJKLMNOPQRSTUVWXYZabcdefghijklmnopqrstuvwxyz**************************
**PARASOLID !"#$%&'()*+,-./:;<=>?@[\]^_`{|}~0123456789**************************
**PART1;
MC=AMD64;
MC_MODEL=AMD64 Family 26 Model 68 Stepping 0, AuthenticAMD;
MC_ID=unknown;
OS=Windows_NT;
OS_RELEASE=unknown;
FRU=Parasolid Version 36.1, build 228,  1-18-2025;
APPL=SOLIDWORKS 2025-2025268;
SITE=;
USER=unknown;
FORMAT=text;
GUISE=transmit;
KEY=makeProjectedPlanarWire;
FILE=makeProjectedPlanarWire.x_t;
DATE=Fri Dec 12 14:40:34 2025;
**PART2;
SCH=SCH_3601228_36001;
USFLD_SIZE=0;
**PART3;
**END_OF_HEADER*****************************************************************
T51 : TRANSMIT FILE created by modeller version 360122823 SCH_3601228_36001_1300
6231 0 12 36 CCCI7 lattice222 0 CCCI4 mesh1006 0 I8 polyline1008 0 CCCCCCCDI5 ow
ner1040 0 CCCI16 boundary_lattice222 0 CCCI13 boundary_mesh1006 0 I17 boundary_p
olyline1008 0 CCCA16 index_map_offset0 0 1 dA9 index_map82 0 A17 node_id_index_m
ap82 0 A20 schema_embedding_map82 0 A5 child12 0 A14 lowest_node_id0 0 1 dA16 me
sh_offset_data206 0 Z1 2170 0 0 0 0 0 0 0 0 0 1e3 1e-8 0 2 0 1 0 3 1 3 0 4 5 6 0
 0 7 8 9 0 0 0 0 0 0 0 13 255 3 70 0 1 0 10 0 0 7 10 50 255 4 3 0 10 0 0 0 +0 0
 0 0 1 0 0 0 1 30 255 5 1825 0 11 12 0 0 +-.130175 0 1571246817031745e-32 120702
6554278274e-31 0 1 29 255 6 1832 0 13 14 0 -.130175 0 -.114975 19 9 CCCCCCI5 fra
me230 0 CA5 owner12 0 Z7 69 0 1 0 0 3 0 V0 16 255 8 42 0 ?15 0 16 17 0 0 1 18 25
5 9 66 0 18 0 19 20 ?1 17 255 18 0 0 0 0 9 21 16 0 22 +18 19 63 0 23 9 24 25 ?1
 29 20 68 0 9 25 26 .152675 0 -.137475 29 25 65 0 19 27 20 .152675 0 .137475 29
 26 783 0 28 20 29 -.152675 0 .137475 18 28 769 0 30 24 31 26 ?1 29 29 1240 0 32
 26 33 .130175 0 -.114975 18 32 1224 0 34 31 13 29 ?1 29 33 1239 0 31 29 14 .130
175 0 .114975 18 31 1223 0 35 28 32 33 ?1 29 14 1833 0 36 33 6 -.130175 0 .11497
5 18 36 1817 0 37 13 0 14 ?1 17 37 0 38 39 35 36 40 41 0 42 -18 13 1816 0 43 32
 36 6 ?1 17 43 0 0 0 0 13 34 44 0 39 -17 34 0 38 35 39 32 43 44 0 45 +16 44 1075
 0 ?34 46 11 47 0 0 1 17 39 0 38 34 37 13 42 11 0 0 -15 255 38 2078 0 39 10 48 1
7 42 0 0 0 0 36 39 11 0 0 +16 11 1479 0 ?42 44 0 5 0 0 1 14 255 10 1 0 ?0 0 38 3
 4 +0 0 0 0 3 15 48 7 0 21 10 0 17 21 0 48 30 22 24 18 16 0 0 -17 30 0 48 23 21
 28 49 50 0 51 +17 22 0 48 21 23 9 15 8 0 0 -18 24 48 0 49 19 28 27 ?1 16 16 8 0
 ?18 8 52 53 0 0 1 16 52 620 0 ?23 16 50 54 0 0 1 30 53 10 0 16 0 17 0 +0 0 -.13
7475 1 0 0 30 17 44 0 8 53 55 0 +.152675 0 -154121931519045e-31 1009477200059244
e-31 0 1 30 55 776 0 50 17 54 0 +-.152675 0 154121931519045e-31 1009477200059244
e-31 0 1 16 50 668 0 ?30 52 41 55 0 0 1 30 54 775 0 52 55 47 0 +-124961446135863
2e-32 0 .137475 1 0 908975785676402e-31 30 47 1232 0 44 54 56 0 +0 0 -.114975 1
 0 0 30 56 1231 0 46 47 12 0 +.130175 0 0 0 0 1 16 46 1027 0 ?35 41 44 56 0 0 1
 30 12 1230 0 41 56 5 0 +612866776724973e-32 0 .114975 1 0 -533043510958881e-31
 16 41 979 0 ?40 50 46 12 0 0 1 17 40 0 0 0 0 31 37 41 0 0 +17 35 0 38 37 34 31
 45 46 0 40 +17 45 0 0 0 0 32 35 46 0 0 -17 23 0 48 22 30 19 51 52 0 15 +17 51 0
 0 0 0 28 23 52 0 0 -17 15 0 0 0 0 19 22 8 0 0 +17 49 0 0 0 0 24 30 50 0 21 -29
 27 50 0 24 0 25 -.152675 0 -.137475 1 0 
